#!OML:ASF I:\golf\golf\golf 2\Subject 1\2002-09-07\Subject1.ASF
:FULLY-SPECIFIED
:DEGREES
258
root -5.64266 18.0042 -1.40134 -177.101 36.4873 -180.314
lowerback -3.69894 4.65836 10.2157
upperback -0.430899 8.01682 15.1295
thorax 0.573096 4.98671 10.9275
lowerneck -4.66501 -20.6728 -1.91235
upperneck 23.2427 -25.5887 -6.27972
head 7.35064 -12.1941 -3.46538
rclavicle -1.00983e-013 -3.81667e-014
rhumerus 31.5118 43.7156 -83.2958
rradius 27.2907
rwrist -21.3847
rhand 4.59913 -8.3309
rfingers 7.12502
rthumb 29.9875 -35.9204
lclavicle -1.00983e-013 -3.81667e-014
lhumerus 13.5133 -23.2946 92.7895
lradius 33.3663
lwrist 58.9049
lhand -12.876 56.5832
lfingers 7.12502
lthumb -166.787 266.144
rfemur 2.70247 -1.41671 5.87061
rtibia 34.7138
rfoot 5.79266 -20.3726
rtoes 3.0204
lfemur -16.3153 -6.71614 -18.9962
ltibia 20.0981
lfoot -3.53171 -34.9742
ltoes 8.43348
259
root -5.63373 17.9975 -1.43164 -177.229 35.4833 -180.241
lowerback -3.09731 5.21652 10.3347
upperback -0.680431 9.00122 15.0849
thorax -0.132599 5.49689 10.7143
lowerneck -4.89215 -20.9409 -1.62149
upperneck 22.6468 -26.1776 -5.47887
head 7.25548 -12.3995 -3.29606
rclavicle -5.56597e-014 -1.33583e-013
rhumerus 35.4938 44.5396 -80.6683
rradius 28.8084
rwrist -18.6014
rhand 5.4871 -6.37566
rfingers 7.12502
rthumb 30.8345 -33.8086
lclavicle -5.56597e-014 -1.33583e-013
lhumerus 14.6664 -21.8296 91.7744
lradius 35.9184
lwrist 58.4126
lhand -15.4105 52.1936
lfingers 7.12502
lthumb -169.231 261.898
rfemur 3.4819 -1.30702 6.08985
rtibia 34.3615
rfoot 6.59589 -20.0296
rtoes 0.957354
lfemur -16.5409 -6.72816 -19.0343
ltibia 20.7765
lfoot -3.37129 -35.8042
ltoes 9.61636
260
root -5.62634 17.9876 -1.46991 -176.946 34.3387 -179.852
lowerback -3.01715 5.68978 10.7942
upperback -0.846108 9.76785 15.0821
thorax -0.385209 5.90648 10.445
lowerneck -5.29127 -21.175 -1.25983
upperneck 21.8366 -26.7284 -4.78348
head 7.09671 -12.6168 -3.16543
rclavicle 1.66979e-014 9.22361e-014
rhumerus 40.0878 45.5338 -77.2461
rradius 30.6652
rwrist -16.9309
rhand 5.39809 -4.84754
rfingers 7.12502
rthumb 30.7496 -32.2964
lclavicle 1.66979e-014 9.22361e-014
lhumerus 16.213 -20.1028 90.7689
lradius 38.1353
lwrist 57.7018
lhand -16.4379 48.4564
lfingers 7.12502
lthumb -170.222 258.209
rfemur 4.02775 -1.35341 6.63109
rtibia 34.0539
rfoot 7.27587 -19.9488
rtoes 0.000972223
lfemur -16.9623 -6.87181 -18.7744
ltibia 21.3425
lfoot -3.71767 -36.6363
ltoes 10.0756
261
root -5.61921 17.9793 -1.51318 -176.636 33.2392 -179.556
lowerback -2.88554 6.12556 10.9272
upperback -1.15494 10.5877 15.2176
thorax -0.90486 6.3644 10.4833
lowerneck -5.40273 -21.4269 -1.15308
upperneck 20.9748 -27.215 -4.28183
head 6.88499 -12.8403 -3.02401
rclavicle 4.69132e-014 -2.8625e-014
rhumerus 44.1174 46.3058 -74.1282
rradius 32.4063
rwrist -15.3797
rhand 4.78644 -3.30198
rfingers 7.12502
rthumb 30.1663 -30.859
lclavicle 4.69132e-014 -2.8625e-014
lhumerus 17.4539 -18.3694 90.1648
lradius 40.439
lwrist 57.2038
lhand -16.632 46.2947
lfingers 7.12502
lthumb -170.41 256.056
rfemur 4.49333 -1.43933 7.065
rtibia 33.7357
rfoot 7.57759 -20.153
rtoes 0.677642
lfemur -17.4183 -7.1404 -18.593
ltibia 21.8682
lfoot -3.99725 -37.3442
ltoes 10.5295
262
root -5.6104 17.9749 -1.5592 -176.482 32.3473 -179.55
lowerback -2.96857 6.53464 10.2151
upperback -1.30285 11.4162 15.6993
thorax -1.36747 6.88687 11.4205
lowerneck -5.43893 -21.5901 -1.57239
upperneck 20.0623 -27.5001 -3.83318
head 6.71524 -13.0123 -2.83348
rclavicle -3.73715e-014 -1.39944e-013
rhumerus 47.6887 46.8612 -71.21
rradius 33.8255
rwrist -13.1716
rhand 4.19095 -1.40587
rfingers 7.12502
rthumb 29.598 -29.0652
lclavicle -3.73715e-014 -1.39944e-013
lhumerus 18.6426 -16.132 90.3278
lradius 42.5527
lwrist 56.2367
lhand -17.0205 44.7312
lfingers 7.12502
lthumb -170.784 254.51
rfemur 4.93685 -1.46966 7.17234
rtibia 33.3568
rfoot 7.68222 -20.3088
rtoes 1.56887
lfemur -17.8457 -7.45878 -18.6725
ltibia 22.4295
lfoot -3.85517 -37.8713
ltoes 10.851
263
root -5.60065 17.9732 -1.60847 -176.123 31.4283 -179.358
lowerback -2.65113 6.94618 10.0714
upperback -1.86178 12.3278 15.7944
thorax -2.34694 7.40632 11.4706
lowerneck -5.27479 -21.7121 -1.76204
upperneck 19.5323 -27.7194 -3.3936
head 6.60712 -13.1056 -2.6634
rclavicle -9.54166e-014 2.09917e-013
rhumerus 45.7874 44.8992 -76.3176
rradius 34.2093
rwrist -5.70947
rhand 4.86994 1.90714
rfingers 7.12502
rthumb 30.2459 -25.6353
lclavicle -9.54166e-014 2.09917e-013
lhumerus 19.4358 -14.1799 89.9268
lradius 44.3704
lwrist 54.6059
lhand -17.4106 42.5227
lfingers 7.12502
lthumb -171.161 252.318
rfemur 5.29207 -1.50269 7.4958
rtibia 32.9076
rfoot 7.91412 -20.4994
rtoes 2.01068
lfemur -18.3869 -7.8465 -18.557
ltibia 23.0123
lfoot -3.32598 -38.3231
ltoes 12.0021
264
root -5.59199 17.9735 -1.65952 -175.451 30.3932 -178.728
lowerback -2.31776 7.70804 13.4553
upperback -2.38395 12.9438 13.7841
thorax -1.96143 7.38657 7.3854
lowerneck -5.84263 -21.6165 0.0337546
upperneck 18.8966 -28.1095 -1.60218
head 6.5123 -13.0519 -2.39766
rclavicle -4.92986e-014 -3.18055e-014
rhumerus 54.3856 45.7178 -70.5836
rradius 35.3982
rwrist -8.32891
rhand 2.69443 2.70717
rfingers 7.12502
rthumb 28.1685 -25.1965
lclavicle -4.92986e-014 -3.18055e-014
lhumerus 21.9446 -14.1673 85.4301
lradius 46.4728
lwrist 54.3455
lhand -18.5182 40.232
lfingers 7.12502
lthumb -172.23 250.069
rfemur 5.5832 -1.55289 8.30919
rtibia 32.4138
rfoot 8.21939 -20.8164
rtoes 1.92674
lfemur -19.0478 -8.33533 -17.9857
ltibia 23.5974
lfoot -2.54656 -38.7329
ltoes 14.0446
265
root -5.58456 17.9738 -1.71413 -174.752 29.2879 -178.04
lowerback -2.29686 8.11743 14.2242
upperback -2.76923 13.6806 13.6706
thorax -2.26214 7.75341 6.85421
lowerneck -6.16958 -21.6438 0.0896525
upperneck 18.0762 -28.2822 -1.01078
head 6.381 -13.135 -2.24774
rclavicle -1.90833e-014 3.18055e-014
rhumerus 57.7241 45.5845 -69.1804
rradius 35.6946
rwrist -6.7927
rhand 1.62958 4.54348
rfingers 7.12502
rthumb 27.1503 -23.5235
lclavicle -1.90833e-014 3.18055e-014
lhumerus 23.4736 -12.8664 84.3504
lradius 48.5598
lwrist 54.3634
lhand -20.566 37.773
lfingers 7.12502
lthumb -174.207 247.674
rfemur 5.89787 -1.74725 9.16489
rtibia 31.9149
rfoot 8.27691 -21.2154
rtoes 3.03168
lfemur -19.7229 -8.97014 -17.3332
ltibia 24.1675
lfoot -2.22707 -39.1241
ltoes 15.1859
